<svg height="32" viewBox="0 0 45.7 45.7" width="32" xmlns="http://www.w3.org/2000/svg"><g fill="none" stroke-linecap="round" stroke-linejoin="round" transform="translate(-54 -74.5)"><g stroke="#a8a8a8" stroke-width="2.86"><path d="m56.4 76.6h20.5v20.5h-20.5z"/><path d="m76.9 76.6h20.5v20.5h-20.5z"/><path d="m56.4 97.1h20.5v20.5h-20.5z"/><path d="m76.9 97.1h20.5v20.5h-20.5z"/></g><g stroke="#828282" stroke-width="2.29"><path d="m82.9 86.9h8.57"/><path d="m66.7 82.9v8.57"/><path d="m66.7 82.9v8.57" transform="matrix(0 1 -1 0 154 20.5)"/><g transform="matrix(.725 .689 -.689 .725 78.4 -1.71)"><path d="m66.7 82.9v8.57"/><path d="m66.7 82.9v8.57" transform="matrix(0 1 -1 0 154 20.5)"/></g><path d="m83.6 111 7.11-7.11"/></g></g></svg>