<?xml version="1.0" encoding="UTF-8" standalone="no"?>
<!-- Created with Inkscape (http://www.inkscape.org/) -->

<svg
   width="32"
   height="32"
   viewBox="0 0 45.714286 45.714286"
   version="1.1"
   id="svg5"
   inkscape:version="1.2.1 (9c6d41e4, 2022-07-14)"
   sodipodi:docname="graph.svg"
   xmlns:inkscape="http://www.inkscape.org/namespaces/inkscape"
   xmlns:sodipodi="http://sodipodi.sourceforge.net/DTD/sodipodi-0.dtd"
   xmlns="http://www.w3.org/2000/svg"
   xmlns:svg="http://www.w3.org/2000/svg">
  <sodipodi:namedview
     id="namedview7"
     pagecolor="#ffffff"
     bordercolor="#000000"
     borderopacity="0.25"
     inkscape:showpageshadow="2"
     inkscape:pageopacity="0.0"
     inkscape:pagecheckerboard="0"
     inkscape:deskcolor="#d1d1d1"
     inkscape:document-units="mm"
     showgrid="true"
     inkscape:zoom="11.336623"
     inkscape:cx="13.187348"
     inkscape:cy="19.362026"
     inkscape:window-width="1440"
     inkscape:window-height="847"
     inkscape:window-x="0"
     inkscape:window-y="25"
     inkscape:window-maximized="0"
     inkscape:current-layer="layer1"
     showborder="false">
    <inkscape:grid
       type="xygrid"
       id="grid686"
       originx="-54.00231"
       originy="-74.542963" />
  </sodipodi:namedview>
  <defs
     id="defs2" />
  <g
     inkscape:label="Layer 1"
     inkscape:groupmode="layer"
     id="layer1"
     transform="translate(-54.002298,-74.542976)">
    <g
       id="g4191"
       transform="matrix(1.0784674,0,0,1.0784674,-6.1662104,-6.4447696)">
      <g
         id="path3968">
        <path
           style="color:#000000;fill:#cccccc;stroke-linecap:round;stroke-linejoin:round"
           d="m 92.857422,81.091797 a 0.33745801,0.33745801 0 0 0 -0.238281,0.09766 l -14.1875,14.1875 H 61.427734 a 0.33745801,0.33745801 0 0 0 -0.335937,0.337891 0.33745801,0.33745801 0 0 0 0.335937,0.335937 h 17.144532 a 0.33749176,0.33749176 0 0 0 0.238281,-0.09766 L 93.095703,81.667969 a 0.33745801,0.33745801 0 0 0 0,-0.478516 0.33745801,0.33745801 0 0 0 -0.238281,-0.09766 z"
           id="path4118" />
        <g
           id="g4100">
          <g
             id="path4110">
            <path
               style="color:#000000;fill:#999999;fill-rule:evenodd;stroke-width:0.6765pt"
               d="m 58.04606,95.714299 c 0,-1.86714 1.51536,-3.3825 3.3825,-3.3825 1.86714,0 3.3825,1.51536 3.3825,3.3825 0,1.86714 -1.55595,3.3825 -3.3825,3.3825 -1.86714,0 -3.3825,-1.51536 -3.3825,-3.3825 z"
               id="path4114" />
            <path
               style="color:#000000;fill:#999999;fill-rule:evenodd"
               d="m 61.427734,91.880859 c -2.111157,0 -3.832031,1.722828 -3.832031,3.833985 0,2.111157 1.720874,3.832031 3.832031,3.832031 2.07599,0 3.833985,-1.714338 3.833985,-3.832031 0,-2.111157 -1.722827,-3.833985 -3.833985,-3.833985 z m 0,0.902344 c 1.623119,0 2.931641,1.308522 2.931641,2.931641 0,1.616583 -1.354534,2.93164 -2.931641,2.93164 -1.623119,0 -2.93164,-1.308521 -2.93164,-2.93164 0,-1.623119 1.308521,-2.931641 2.93164,-2.931641 z"
               id="path4116" />
          </g>
          <g
             id="path4102">
            <path
               style="color:#000000;fill:#999999;fill-rule:evenodd;stroke-width:0.6765pt"
               d="m 90.465342,83.820374 c -1.320267,-1.320268 -1.320267,-3.46331 0,-4.783578 1.320268,-1.320267 3.46331,-1.320267 4.783578,0 1.320267,1.320268 1.291565,3.492012 0,4.783578 -1.320268,1.320267 -3.46331,1.320267 -4.783578,0 z"
               id="path4106" />
            <path
               style="color:#000000;fill:#999999;fill-rule:evenodd"
               d="m 92.857422,77.597656 c -0.982142,0 -1.964531,0.374687 -2.710938,1.121094 -1.492813,1.492814 -1.492813,3.927108 0,5.419922 1.492815,1.492813 3.929061,1.492813 5.421875,0 1.467946,-1.467947 1.497435,-3.922486 0,-5.419922 -0.746407,-0.746407 -1.728795,-1.121094 -2.710937,-1.121094 z m 0,0.896485 c 0.749511,0 1.498406,0.287469 2.072265,0.861328 1.143097,1.143097 1.115182,3.031301 0,4.146484 -1.147719,1.147718 -2.996812,1.147718 -4.144531,0 -1.147718,-1.147719 -1.147718,-2.998765 0,-4.146484 0.57386,-0.573859 1.322755,-0.861328 2.072266,-0.861328 z"
               id="path4108" />
          </g>
        </g>
      </g>
      <g
         id="path3970">
        <path
           style="color:#000000;fill:#cccccc;stroke-linecap:round;stroke-linejoin:round;-inkscape-stroke:none"
           d="m 78.587891,95.376953 a 0.33745801,0.33745801 0 0 0 -0.244141,0.08789 0.33745801,0.33745801 0 0 0 -0.02148,0.476562 l 14.285156,15.714845 a 0.33745801,0.33745801 0 0 0 0.476562,0.0215 0.33745801,0.33745801 0 0 0 0.02344,-0.47656 L 78.820312,95.486328 a 0.33745801,0.33745801 0 0 0 -0.232421,-0.109375 z"
           id="path4148" />
        <g
           id="g4130">
          <g
             id="path4140">
            <path
               style="color:#000000;fill:#999999;fill-rule:evenodd;stroke-width:0.6765pt;-inkscape-stroke:none"
               d="m 95.132447,113.93143 c -1.381571,1.25597 -3.522188,1.15404 -4.778163,-0.22753 -1.255974,-1.38158 -1.15404,-3.52219 0.227531,-4.77817 1.381571,-1.25597 3.549492,-1.124 4.778163,0.22753 1.255974,1.38158 1.15404,3.52219 -0.227531,4.77817 z"
               id="path4144" />
            <path
               style="color:#000000;fill:#999999;fill-rule:evenodd;-inkscape-stroke:none"
               d="m 93.050781,107.61133 c -0.983382,-0.0505 -1.988001,0.26821 -2.771484,0.98047 -1.562127,1.42012 -1.677928,3.85388 -0.257813,5.41601 1.420119,1.56213 3.851934,1.67793 5.414063,0.25782 1.562127,-1.42013 1.677928,-3.85388 0.257812,-5.41602 -0.698231,-0.76805 -1.659195,-1.18776 -2.642578,-1.23828 z m -0.04492,0.90039 c 0.753137,0.0394 1.489093,0.36183 2.019532,0.94531 1.091829,1.20102 1.003746,3.04879 -0.197266,4.14063 -1.20101,1.09182 -3.048797,1.00374 -4.140625,-0.19727 -1.09183,-1.20102 -1.003746,-3.04879 0.197266,-4.14062 0.598086,-0.54372 1.367957,-0.78741 2.121093,-0.74805 z"
               id="path4146" />
          </g>
          <g
             id="path4132">
            <path
               style="color:#000000;fill:#999999;fill-rule:evenodd;stroke-width:0.6765pt;-inkscape-stroke:none"
               d="m 80.846733,98.217146 c -1.381571,1.255974 -3.522188,1.15404 -4.778163,-0.227531 -1.255974,-1.381571 -1.15404,-3.522188 0.227531,-4.778163 1.381571,-1.255974 3.549492,-1.124006 4.778163,0.227531 1.255974,1.381571 1.15404,3.522188 -0.227531,4.778163 z"
               id="path4136" />
            <path
               style="color:#000000;fill:#999999;fill-rule:evenodd;-inkscape-stroke:none"
               d="m 78.763672,91.896484 c -0.983383,-0.05052 -1.988002,0.268212 -2.771485,0.980469 -1.562128,1.420119 -1.67793,3.853887 -0.257812,5.416016 1.420119,1.562129 3.853886,1.67793 5.416016,0.257812 1.562129,-1.420119 1.67793,-3.853886 0.257812,-5.416015 -0.698231,-0.768054 -1.661148,-1.187764 -2.644531,-1.238282 z m -0.04297,0.902344 c 0.753136,0.03936 1.489093,0.359878 2.019531,0.943359 1.091828,1.201011 1.003745,3.048797 -0.197265,4.140625 -1.20101,1.091828 -3.048797,1.003745 -4.140625,-0.197265 -1.091828,-1.20101 -1.003745,-3.048796 0.197265,-4.140625 0.598087,-0.543716 1.367958,-0.785451 2.121094,-0.746094 z"
               id="path4138" />
          </g>
        </g>
      </g>
    </g>
  </g>
</svg>
