<?xml version="1.0" encoding="UTF-8" standalone="no"?>
<!-- Created with Inkscape (http://www.inkscape.org/) -->

<svg
   width="32"
   height="32"
   viewBox="0 0 45.714286 45.714286"
   version="1.1"
   id="svg5"
   inkscape:version="1.2.1 (9c6d41e4, 2022-07-14)"
   sodipodi:docname="parametric.svg"
   xmlns:inkscape="http://www.inkscape.org/namespaces/inkscape"
   xmlns:sodipodi="http://sodipodi.sourceforge.net/DTD/sodipodi-0.dtd"
   xmlns="http://www.w3.org/2000/svg"
   xmlns:svg="http://www.w3.org/2000/svg"
   xmlns:ns3="http://www.iki.fi/pav/software/textext/">
  <sodipodi:namedview
     id="namedview7"
     pagecolor="#ffffff"
     bordercolor="#000000"
     borderopacity="0.25"
     inkscape:showpageshadow="2"
     inkscape:pageopacity="0.0"
     inkscape:pagecheckerboard="0"
     inkscape:deskcolor="#d1d1d1"
     inkscape:document-units="mm"
     showgrid="true"
     inkscape:zoom="12.085971"
     inkscape:cx="23.622429"
     inkscape:cy="16.837704"
     inkscape:window-width="1440"
     inkscape:window-height="847"
     inkscape:window-x="0"
     inkscape:window-y="25"
     inkscape:window-maximized="0"
     inkscape:current-layer="layer1">
    <inkscape:grid
       type="xygrid"
       id="grid686"
       originx="-54.00231"
       originy="-74.542963" />
  </sodipodi:namedview>
  <defs
     id="defs2" />
  <g
     inkscape:label="Layer 1"
     inkscape:groupmode="layer"
     id="layer1"
     transform="translate(-54.0023,-74.543)">
    <g
       transform="matrix(1.33333,0,0,1.33333,86.836482,97.729543)"
       ns3:version="1.8.2"
       ns3:texconverter="pdflatex"
       ns3:pdfconverter="inkscape"
       ns3:text="$\\infty$"
       ns3:preamble="/Users/ketiboldiais/Library/Application Support/org.inkscape.Inkscape/config/inkscape/extensions/textext/default_packages.tex"
       ns3:scale="1.0"
       ns3:alignment="middle center"
       ns3:stroke-to-path="0"
       ns3:inkscapeversion="1.2.1"
       ns3:jacobian_sqrt="1.33333"
       id="g6638">
      <defs
         id="id-dff4e613-aed0-483c-8ac3-5e1b6b81427a">
        <g
           id="id-01047e38-87fd-484e-bb1e-0fa3c8ba3164">
          <g
             id="id-7ad5d30c-ae07-4a70-9a61-a9d6f3f8db70" />
          <g
             id="id-5a512724-907e-4978-8f36-f654c157609b">
            <path
               d="M 5.0625,-2.703125 C 4.53125,-3.375 4.40625,-3.53125 4.09375,-3.78125 c -0.5625,-0.453125 -1.109375,-0.625 -1.625,-0.625 -1.15625,0 -1.921875,1.09375 -1.921875,2.265625 0,1.140625 0.734375,2.25 1.890625,2.25 1.140625,0 1.96875,-0.90625 2.453125,-1.703125 0.546875,0.671875 0.65625,0.828125 0.96875,1.078125 0.5625,0.453125 1.125,0.625 1.625,0.625 1.171875,0 1.921875,-1.09375 1.921875,-2.265625 0,-1.140625 -0.734375,-2.25 -1.875,-2.25 -1.15625,0 -1.984375,0.90625 -2.46875,1.703125 z m 0.265625,0.34375 c 0.40625,-0.71875 1.140625,-1.734375 2.265625,-1.734375 1.0625,0 1.59375,1.046875 1.59375,1.9375 0,0.984375 -0.671875,1.78125 -1.546875,1.78125 C 7.0625,-0.375 6.625,-0.78125 6.40625,-1 6.15625,-1.265625 5.9375,-1.578125 5.328125,-2.359375 Z m -0.6875,0.421875 c -0.40625,0.71875 -1.15625,1.734375 -2.28125,1.734375 -1.046875,0 -1.59375,-1.046875 -1.59375,-1.9375 0,-0.984375 0.671875,-1.78125 1.546875,-1.78125 0.578125,0 1.03125,0.40625 1.234375,0.625 0.25,0.265625 0.484375,0.578125 1.09375,1.359375 z m 0,0"
               id="id-d0702c1c-3996-4519-b5b0-9da408472b5d" />
          </g>
        </g>
      </defs>
      <g
         fill="#000000"
         fill-opacity="1"
         id="id-550df88a-2367-4020-99b9-73ecb564d9f9"
         transform="translate(-149.259,-130.359)">
        <g
           transform="translate(148.712,134.765)"
           id="g6635" />
      </g>
    </g>
    <path
       style="fill:#999999;stroke:#999999;stroke-width:1.62845;stroke-linecap:round;stroke-linejoin:round"
       d="M 76.762246,77.142895 V 118.57147"
       id="path1366" />
    <path
       style="fill:#999999;stroke:#999999;stroke-width:1.53346;stroke-linecap:round;stroke-linejoin:round"
       d="M 54.296795,95.723158 H 99.227696"
       id="path1368" />
    <path
       style="fill:none;stroke:#828282;stroke-width:2.85714;stroke-linecap:round;stroke-linejoin:round;stroke-dasharray:none"
       d="m 88.638222,85.98121 c 9.500766,0 9.500766,23.75195 0,23.75195 -9.500768,0 -14.251183,-23.75195 -23.751954,-23.751954 -9.500764,4e-6 -9.500764,23.751954 0,23.751954 9.500771,0 14.251186,-23.75195 23.751954,-23.75195 z"
       id="path6652"
       sodipodi:nodetypes="ccccc" />
  </g>
</svg>
